<svg viewBox="0 0 256 256" xmlns="http://www.w3.org/2000/svg"><path d="m16.819506 178.444554c-6.758523-15.555774-10.137784-32.368298-10.137784-50.451535 0-18.292696 3.379261-35.17504 10.137784-50.619102 6.730595-15.444063 16.170185-28.989036 28.318769-40.662848 12.120657-11.659848 26.363825-20.694485 42.701576-27.103911 16.36568-6.409427 34.155676-9.607158 53.369989-9.607158 22.64943 0 43.28806 4.510337 61.943817 13.544974 18.655757 9.048601 33.932253 21.001691 45.829488 35.85927l-41.891671 37.409262c-5.948617-10.291387-14.46659-18.530082-25.553919-24.702122-11.087329-6.186003-23.626902-9.272023-37.590793-9.272023-14.410735 0-27.341297 3.211695-38.763759 9.607156-11.45039 6.409426-20.415208 15.276496-26.950308 26.601211-6.507173 11.324715-9.774723 24.311133-9.774723 38.94529 0 14.648121 3.26755 27.634539 9.774723 38.959254 6.535101 11.324715 15.555774 20.191785 27.117875 26.587247 11.562101 6.409426 24.66023 9.62112 39.294387 9.62112 13.740468 0 26.084547-3.099984 37.060165-9.272023s19.577374-14.522446 25.749414-25.051219l41.863743 37.409262c-11.897234 15.094965-27.17373 27.159767-45.829488 36.194404-18.62783 9.048601-39.406098 13.558937-62.278951 13.558937-19.214313 0-37.004309-3.197731-53.369989-9.607156-16.337752-6.395462-30.58092-15.444063-42.701576-27.103911-12.148585-11.673812-21.588174-25.288605-28.318769-40.844379z" fill="#92c83e"/></svg>